<?xml version="1.0" encoding="utf-8"?>
<!-- Generator: Adobe Illustrator 16.0.0, SVG Export Plug-In . SVG Version: 6.00 Build 0)  -->
<!DOCTYPE svg PUBLIC "-//W3C//DTD SVG 1.1//EN" "http://www.w3.org/Graphics/SVG/1.1/DTD/svg11.dtd">
<svg version="1.1" id="Camada_1" xmlns="http://www.w3.org/2000/svg" xmlns:xlink="http://www.w3.org/1999/xlink" x="0px" y="0px"
	 width="259.107px" height="238.461px" viewBox="0 0 259.107 238.461" enable-background="new 0 0 259.107 238.461"
	 xml:space="preserve">
<g>
	<path fill="#ADD0CE" d="M229.633,103.059c0,57.777-18.318,104.615-80.77,104.615c-119.718,0-113.077,4.98-113.077-104.615
		c0-57.777,62.166-72.308,124.616-72.308C222.854,30.751,229.633,45.282,229.633,103.059z"/>
	<path fill-rule="evenodd" clip-rule="evenodd" d="M103.377,91.61c0-0.969-0.001-1.715,0-2.463
		c0.018-9.137,0.031-18.273,0.057-27.41c0.004-1.078,0.008-2.162,0.118-3.232c0.322-3.141,2.29-5.313,5.421-5.717
		c1.736-0.225,3.544-0.23,5.284-0.035c3.707,0.419,5.943,2.742,5.955,6.443c0.063,18.781,0.028,37.563,0.022,56.344
		c0,0.176-0.087,0.354-0.173,0.682c-6.565,0-13.138,0-19.988,0c0,0.889,0,1.621,0,2.354c0.002,26.84-0.021,53.68,0.035,80.52
		c0.007,3.43-0.995,6.138-4.217,7.613c-3.513,1.607-6.939,1.305-10.026-1.077c-1.881-1.451-2.542-3.509-2.538-5.876
		c0.028-15.165,0.015-30.33,0.015-45.494c0-0.756,0-1.512,0-2.406c-2.215,0-4.338,0-6.772,0c0,0.695,0,1.426,0,2.156
		c0,14.975,0.008,29.948-0.005,44.922c-0.005,6.372-4.483,9.869-10.704,8.398c-3.99-0.942-6.084-3.673-6.084-8.014
		c-0.005-26.078-0.013-52.156,0.033-78.234c0.003-1.553-0.411-2.754-1.349-3.975c-10.65-13.891-21.257-27.812-31.871-41.73
		c-4.051-5.311-3.523-8.73,1.915-12.562c4.244-2.989,7.604-2.55,10.928,1.524c6.817,8.354,13.637,16.707,20.362,25.135
		c1.261,1.58,2.549,2.205,4.602,2.188c12.182-0.107,24.365-0.053,36.547-0.053C101.637,91.61,102.33,91.61,103.377,91.61z
		 M110.278,98.276c-0.647,0.053-1.018,0.11-1.39,0.111c-16.941,0.01-33.884,0.032-50.826-0.034c-0.758-0.003-1.74-0.645-2.231-1.285
		c-7.064-9.208-14.059-18.47-21.083-27.708c-0.78-1.027-1.595-2.617-3.12-1.4c-1.426,1.139-0.245,2.38,0.526,3.455
		c0.037,0.052,0.083,0.098,0.121,0.147c8.853,11.593,17.758,23.146,26.511,34.814c1.655,2.208,3.272,3.731,6.192,3.123
		c0.455-0.095,0.964,0.069,1.593,0.126c0,3.705,0,7.3,0,11.01c8.943,0,17.73,0,26.771,0c0-3.724,0-7.365,0-11.186
		c6.818,0,13.387,0,20.028,0c0.041-0.486,0.088-0.791,0.088-1.094c-0.003-15.801-0.011-31.602-0.018-47.401
		c0-0.126,0.051-0.296-0.011-0.374c-0.489-0.609-0.91-1.568-1.523-1.719c-1.173-0.285-1.636,0.646-1.655,1.75
		c-0.01,0.507-0.035,1.015-0.034,1.521c0.019,10.914,0.04,21.828,0.062,32.742C110.279,95.944,110.278,97.014,110.278,98.276z
		 M69.99,144.969c6.166,0,12.057,0.072,17.943-0.043c1.784-0.035,2.208,0.512,2.201,2.234c-0.061,17.132-0.045,34.264-0.021,51.395
		c0.001,1.297-0.524,3.174,1.627,3.182c2.178,0.008,1.619-1.896,1.62-3.172c0.013-18.972-0.011-37.943-0.027-56.914
		c0-0.668,0-1.336,0-2.008c-9.068,0-17.852,0-26.702,0c-0.028,0.426-0.066,0.732-0.066,1.039
		c-0.001,19.543,0.001,39.086,0.004,58.629c0,0.253-0.099,0.596,0.027,0.744c0.479,0.566,1.013,1.457,1.565,1.485
		c0.546,0.028,1.306-0.736,1.66-1.337c0.283-0.479,0.116-1.235,0.117-1.868c0.021-16.941,0.036-33.882,0.052-50.823
		C69.991,146.756,69.99,146.001,69.99,144.969z M66.683,127.583c0,1.774,0,3.388,0,5.026c8.892,0,17.661,0,26.467,0
		c0-1.723,0-3.329,0-5.026C84.304,127.583,75.584,127.583,66.683,127.583z"/>
	<path fill-rule="evenodd" clip-rule="evenodd" d="M153.416,116.276c-3.511,0-6.798,0-10.085,0c-3.285,0-6.572,0-10.098,0
		c0-0.84,0-1.515,0-2.189c-0.002-17.643,0.102-35.285-0.059-52.926c-0.061-6.782,3.479-9.168,9.965-8.572
		c4.923,0.453,6.729,2.6,6.915,7.568c0.023,0.633,0.016,1.269,0.017,1.903c0.017,9.011,0.032,18.022,0.049,27.034
		c0,0.75,0,1.501,0,2.406c0.778,0.043,1.388,0.105,1.997,0.105c12.692,0.005,25.385-0.019,38.076,0.037
		c1.302,0.006,2.083-0.46,2.854-1.415c6.854-8.489,13.747-16.948,20.621-25.423c1.896-2.336,3.954-4.521,7.32-3.744
		c3.846,0.887,6.842,3.125,8.303,6.855c1.009,2.577-0.391,4.813-1.909,6.83c-2.938,3.9-5.924,7.766-8.888,11.647
		c-7.889,10.337-15.777,20.672-23.662,31.012c-1.808,2.37-1.61,7.417,0.335,9.625c11.071,12.569,22.124,25.157,33.235,37.693
		c0.902,1.018,1.032,1.802,0.448,2.974c-0.903,1.811-1.709,3.674-2.465,5.552c-3.882,9.644-11.136,15.673-20.678,19.157
		c-3.854,1.408-7.824,2.505-11.996,3.823c0,1.067,0.028,2.386-0.004,3.704c-0.109,4.563-3.521,7.697-8.385,7.721
		c-4.928,0.025-8.22-2.975-8.379-7.646c-0.021-0.624-0.003-1.249-0.003-2.069c-2.274-0.107-4.402-0.207-6.798-0.32
		c0,0.806,0.008,1.604-0.001,2.403c-0.053,4.528-3.488,7.649-8.407,7.64c-4.923-0.01-8.282-3.114-8.324-7.709
		c-0.018-1.896-0.003-3.791-0.003-5.342c-7.271-2.533-14.361-4.828-21.315-7.479c-6.91-2.635-13.685-5.627-20.605-8.5
		c0.144-0.617,0.186-1.046,0.34-1.431c2.775-6.929,5.513-13.872,8.364-20.769c3.875-9.376,10.228-16.701,18.748-22.155
		c4.376-2.802,8.783-5.557,13.223-8.255c0.926-0.564,1.315-1.144,1.278-2.233C153.36,121.387,153.416,118.979,153.416,116.276z
		 M177.835,191.104c7.33-0.252,15.659-1.622,23.777-4.34c9.17-3.07,15.91-8.66,19.384-17.893c0.44-1.172,0.397-1.857-0.452-2.816
		c-9.68-10.92-19.314-21.879-28.922-32.863c-0.779-0.891-1.536-1.279-2.737-1.274c-10.66,0.048-21.32,0.011-31.981,0.058
		c-0.896,0.005-1.919,0.23-2.665,0.699c-4.504,2.835-9.127,5.531-13.349,8.747c-3.443,2.624-6.918,5.523-9.433,8.987
		c-5.048,6.95-8.058,15.029-11.082,23.035c-0.329,0.87-0.168,1.359,0.751,1.752c10.594,4.516,21.133,9.158,32.351,12.002
		C161.094,189.128,168.688,191.141,177.835,191.104z M143.211,98.387c0-1.002-0.001-1.807,0-2.613
		c0.018-11.355,0.036-22.713,0.05-34.069c0-0.569,0.139-1.272-0.135-1.675c-0.366-0.539-1.054-1.12-1.642-1.162
		c-0.44-0.031-1.039,0.692-1.378,1.205c-0.207,0.313-0.063,0.863-0.063,1.308c-0.007,15.417-0.014,30.835-0.015,46.253
		c0,0.554,0.046,1.107,0.078,1.845c6.683,0,13.249,0,20.04,0c0,5.287,0,10.39,0,15.588c9.012,0,17.794,0,26.78,0
		c0-5.194,0-10.298,0-15.589c1.01,0,1.834-0.107,2.621,0.021c2.008,0.327,3.19-0.563,4.382-2.146
		c7.548-10.034,15.21-19.98,22.834-29.958c1.731-2.268,3.554-4.478,5.116-6.856c0.41-0.623,0.37-2.115-0.097-2.619
		c-0.883-0.947-1.825-0.123-2.515,0.708c-0.202,0.243-0.377,0.509-0.569,0.762c-6.975,9.195-13.965,18.378-20.9,27.603
		c-0.758,1.009-1.508,1.449-2.802,1.445c-16.561-0.053-33.12-0.043-49.681-0.049C144.701,98.387,144.084,98.387,143.211,98.387z
		 M160.192,195.647c0,1.863-0.094,3.375,0.057,4.863c0.045,0.451,0.741,1.138,1.181,1.172c0.57,0.044,1.634-0.379,1.694-0.738
		c0.231-1.348,0.446-2.849,0.044-4.09C162.973,196.252,161.396,196.098,160.192,195.647z M187.264,196.87
		c-1.609,0.284-2.63,0.465-4.1,0.725c0.461,1.458,0.758,2.697,1.293,3.824c0.104,0.219,1.593,0.158,1.664-0.047
		C186.595,200.028,186.854,198.608,187.264,196.87z"/>
	<path fill-rule="evenodd" clip-rule="evenodd" d="M94.974,63.901c3.045,10.758,0.516,18.244-7.468,22.43
		c-6.107,3.202-15.705,2.967-22.121-6.244c-1.523,0.827-3.055,1.687-4.611,2.498c-2.522,1.315-4.896,0.664-6.199-1.666
		c-1.32-2.363-0.646-4.686,1.824-6.143c1.307-0.771,2.646-1.483,3.451-1.932c-0.052-4.101-0.647-7.945-0.04-11.59
		c1.657-9.926,14.049-15.744,22.856-10.881c2.29,1.264,4.287,3.126,6.23,4.919c0.88,0.812,1.43,0.971,2.396,0.347
		c1.007-0.652,2.076-1.23,3.17-1.722c2.348-1.056,4.871-0.195,6.048,1.983c1.173,2.174,0.525,4.418-1.774,5.873
		C97.513,62.547,96.214,63.204,94.974,63.901z M71.551,76.69c3.297,4.686,8.767,5.893,13.371,3.213
		c4.283-2.493,6.078-8.555,3.689-12.536C82.981,70.444,77.343,73.524,71.551,76.69z M69.029,67.729
		c4.188-2.309,8.253-4.549,12.32-6.791c-1.909-3.197-5.728-4.172-9.113-2.4C68.828,60.323,67.445,64.07,69.029,67.729z"/>
	<path fill-rule="evenodd" clip-rule="evenodd" d="M187.965,80.074c-6.441,9.189-15.771,9.459-21.944,6.35
		c-8.063-4.061-10.603-11.483-7.664-22.534c-1.233-0.694-2.524-1.357-3.75-2.125c-2.285-1.432-2.964-3.751-1.791-5.873
		c1.192-2.156,3.749-3.031,6.064-1.97c1.49,0.683,2.905,1.528,4.354,2.302c1.751-1.531,3.374-3.127,5.171-4.492
		c9.947-7.563,22.938-0.337,25.15,8.936c0.847,3.549,0.476,7.063-0.399,10.532c-0.255,1.009-0.056,1.527,0.844,1.959
		c1.027,0.491,2.018,1.063,3.004,1.637c2.442,1.423,3.109,3.771,1.768,6.138c-1.285,2.266-3.666,2.979-6.036,1.753
		C191.12,81.85,189.541,80.94,187.965,80.074z M181.762,76.678c-5.773-3.161-11.418-6.252-17.068-9.346
		c-2.291,4.573-0.562,10.086,3.846,12.633C173.101,82.601,178.688,81.304,181.762,76.678z M184.388,67.768
		c1.464-3.925,0.063-7.568-3.422-9.302c-3.377-1.681-7.022-0.708-8.952,2.48C176.086,63.192,180.154,65.434,184.388,67.768z"/>
	<path fill-rule="evenodd" clip-rule="evenodd" fill="#FFFFFF" d="M110.278,98.276c0-1.262,0.001-2.332,0-3.4
		c-0.021-10.914-0.043-21.828-0.062-32.742c-0.001-0.507,0.024-1.015,0.034-1.521c0.02-1.104,0.482-2.035,1.655-1.75
		c0.613,0.15,1.034,1.109,1.523,1.719c0.062,0.078,0.011,0.248,0.011,0.374c0.007,15.8,0.015,31.601,0.018,47.401
		c0,0.303-0.047,0.607-0.088,1.094c-6.642,0-13.21,0-20.028,0c0,3.82,0,7.462,0,11.186c-9.04,0-17.827,0-26.771,0
		c0-3.71,0-7.305,0-11.01c-0.629-0.057-1.138-0.221-1.593-0.126c-2.92,0.608-4.537-0.915-6.192-3.123
		c-8.753-11.669-17.658-23.222-26.511-34.814c-0.038-0.05-0.084-0.096-0.121-0.147c-0.771-1.075-1.952-2.316-0.526-3.455
		c1.525-1.217,2.34,0.373,3.12,1.4c7.024,9.238,14.019,18.5,21.083,27.708c0.491,0.641,1.474,1.282,2.231,1.285
		c16.942,0.066,33.885,0.044,50.826,0.034C109.261,98.386,109.631,98.329,110.278,98.276z"/>
	<path fill-rule="evenodd" clip-rule="evenodd" fill="#FFFFFF" d="M69.99,144.969c0,1.032,0.001,1.787,0,2.543
		c-0.016,16.941-0.031,33.882-0.052,50.823c-0.001,0.633,0.166,1.389-0.117,1.868c-0.354,0.601-1.114,1.365-1.66,1.337
		c-0.553-0.028-1.086-0.919-1.565-1.485c-0.126-0.148-0.027-0.491-0.027-0.744c-0.003-19.543-0.005-39.086-0.004-58.629
		c0-0.307,0.038-0.613,0.066-1.039c8.851,0,17.634,0,26.702,0c0,0.672,0,1.34,0,2.008c0.017,18.971,0.04,37.942,0.027,56.914
		c-0.001,1.275,0.558,3.18-1.62,3.172c-2.151-0.008-1.626-1.885-1.627-3.182c-0.023-17.131-0.039-34.263,0.021-51.395
		c0.007-1.723-0.417-2.27-2.201-2.234C82.047,145.042,76.156,144.969,69.99,144.969z"/>
	<path fill-rule="evenodd" clip-rule="evenodd" fill="#FFFFFF" d="M66.683,127.583c8.901,0,17.621,0,26.467,0
		c0,1.697,0,3.304,0,5.026c-8.806,0-17.575,0-26.467,0C66.683,130.971,66.683,129.358,66.683,127.583z"/>
	<path fill-rule="evenodd" clip-rule="evenodd" fill="#FFFFFF" d="M177.835,191.104c-9.147,0.037-16.741-1.976-24.358-3.906
		c-11.218-2.844-21.757-7.486-32.351-12.002c-0.919-0.393-1.08-0.882-0.751-1.752c3.024-8.006,6.034-16.085,11.082-23.035
		c2.515-3.464,5.989-6.363,9.433-8.987c4.222-3.216,8.845-5.912,13.349-8.747c0.746-0.469,1.769-0.694,2.665-0.699
		c10.661-0.047,21.321-0.01,31.981-0.058c1.201-0.005,1.958,0.384,2.737,1.274c9.607,10.984,19.242,21.943,28.922,32.863
		c0.85,0.959,0.893,1.645,0.452,2.816c-3.474,9.232-10.214,14.822-19.384,17.893C193.494,189.482,185.165,190.852,177.835,191.104z"
		/>
	<path fill-rule="evenodd" clip-rule="evenodd" fill="#FFFFFF" d="M143.211,98.387c0.873,0,1.49,0,2.106,0
		c16.561,0.006,33.12-0.004,49.681,0.049c1.294,0.004,2.044-0.437,2.802-1.445c6.936-9.225,13.926-18.407,20.9-27.603
		c0.192-0.253,0.367-0.519,0.569-0.762c0.689-0.831,1.632-1.655,2.515-0.708c0.467,0.504,0.507,1.996,0.097,2.619
		c-1.563,2.379-3.385,4.589-5.116,6.856c-7.624,9.978-15.286,19.924-22.834,29.958c-1.191,1.583-2.374,2.474-4.382,2.146
		c-0.787-0.129-1.611-0.021-2.621-0.021c0,5.291,0,10.395,0,15.589c-8.986,0-17.769,0-26.78,0c0-5.198,0-10.301,0-15.588
		c-6.791,0-13.357,0-20.04,0c-0.032-0.737-0.078-1.291-0.078-1.845c0.001-15.418,0.008-30.836,0.015-46.253
		c0-0.444-0.145-0.995,0.063-1.308c0.339-0.513,0.938-1.236,1.378-1.205c0.588,0.042,1.275,0.623,1.642,1.162
		c0.273,0.402,0.135,1.105,0.135,1.675c-0.014,11.356-0.032,22.714-0.05,34.069C143.21,96.581,143.211,97.385,143.211,98.387z"/>
	<path fill-rule="evenodd" clip-rule="evenodd" fill="#FFFFFF" d="M160.192,195.647c1.204,0.451,2.78,0.605,2.976,1.207
		c0.402,1.241,0.188,2.742-0.044,4.09c-0.061,0.359-1.124,0.782-1.694,0.738c-0.439-0.034-1.136-0.721-1.181-1.172
		C160.099,199.022,160.192,197.51,160.192,195.647z"/>
	<path fill-rule="evenodd" clip-rule="evenodd" fill="#FFFFFF" d="M187.264,196.87c-0.41,1.738-0.669,3.158-1.143,4.502
		c-0.071,0.205-1.56,0.266-1.664,0.047c-0.535-1.127-0.832-2.366-1.293-3.824C184.634,197.334,185.654,197.154,187.264,196.87z"/>
	<path fill-rule="evenodd" clip-rule="evenodd" fill="#FFFFFF" d="M71.551,76.69c5.792-3.166,11.431-6.246,17.061-9.323
		C91,71.348,89.205,77.41,84.922,79.903C80.317,82.583,74.848,81.375,71.551,76.69z"/>
	<path fill-rule="evenodd" clip-rule="evenodd" fill="#FFFFFF" d="M69.029,67.729c-1.584-3.659-0.201-7.406,3.207-9.191
		c3.386-1.771,7.204-0.797,9.113,2.4C77.282,63.18,73.217,65.42,69.029,67.729z"/>
	<path fill-rule="evenodd" clip-rule="evenodd" fill="#FFFFFF" d="M181.762,76.678c-3.074,4.626-8.661,5.923-13.223,3.287
		c-4.407-2.547-6.137-8.06-3.846-12.633C170.344,70.426,175.988,73.517,181.762,76.678z"/>
	<path fill-rule="evenodd" clip-rule="evenodd" fill="#FFFFFF" d="M184.388,67.768c-4.233-2.334-8.302-4.576-12.374-6.821
		c1.93-3.188,5.575-4.161,8.952-2.48C184.451,60.2,185.852,63.843,184.388,67.768z"/>
</g>
</svg>
