<?xml version="1.0" encoding="utf-8"?>
<!-- Generator: Adobe Illustrator 16.0.0, SVG Export Plug-In . SVG Version: 6.00 Build 0)  -->
<!DOCTYPE svg PUBLIC "-//W3C//DTD SVG 1.1//EN" "http://www.w3.org/Graphics/SVG/1.1/DTD/svg11.dtd">
<svg version="1.1" id="Camada_1" xmlns="http://www.w3.org/2000/svg" xmlns:xlink="http://www.w3.org/1999/xlink" x="0px" y="0px"
	 width="259.107px" height="238.461px" viewBox="0 0 259.107 238.461" enable-background="new 0 0 259.107 238.461"
	 xml:space="preserve">
<g>
	<path fill-rule="evenodd" clip-rule="evenodd" fill="#ADD0CE" d="M229.529,63.165c33.4,42.725-4.979,141.806-66.156,141.806
		c-61.176,0-146.152,2.236-146.152-51.993c0-54.23,72.67-119.5,133.846-119.5C212.244,33.478,217.221,47.421,229.529,63.165z"/>
	<g>
		<path fill-rule="evenodd" clip-rule="evenodd" d="M129.525,50.563c23.637,0,47.305-0.782,70.898,0.231
			c21.361,0.92,38.42,10.539,48.393,30.396c2.719,5.417,3.877,11.299,3.867,17.397c-0.025,15.2-0.197,30.403,0.039,45.601
			c0.293,18.673-8.289,32.212-23.648,41.879c-9.66,6.078-20.355,9.004-31.764,9.014c-45.602,0.041-91.205,0.378-136.801-0.154
			c-20.203-0.235-36.889-8.717-47.986-26.312c-4.172-6.613-6.109-13.989-6.1-21.851c0.02-15.125,0.186-30.252-0.039-45.372
			c-0.275-18.562,8.193-32.091,23.459-41.765c10.414-6.6,21.963-9.246,34.244-9.199c21.813,0.08,43.625,0.021,65.438,0.021
			C129.525,50.488,129.525,50.525,129.525,50.563z M129.58,184.195c0,0.011,0,0.022,0,0.034c23.254,0,46.508,0.104,69.76-0.055
			c8.572-0.06,16.637-2.564,23.918-7.121c12.117-7.582,18.965-18.119,18.676-32.933c-0.287-14.737-0.146-29.484-0.035-44.228
			c0.082-10.74-4.189-19.445-12.014-26.493c-9.607-8.652-21.193-12.235-33.891-12.26c-44.305-0.083-88.609-0.067-132.912-0.007
			c-10.709,0.016-20.768,2.619-29.604,8.899c-9.875,7.021-16.115,16.247-16.201,28.765c-0.109,16.033-0.016,32.068-0.027,48.104
			c-0.006,6.668,1.959,12.748,5.771,18.143c8.68,12.279,21.043,18.576,35.664,18.977C82.301,184.669,105.947,184.195,129.58,184.195
			z"/>
		<path fill-rule="evenodd" clip-rule="evenodd" d="M49.512,91.778c-3.619-3.99-7.037-7.755-10.449-11.522
			c-2.273-2.511-2.66-4.658-1.268-6.98c1.369-2.286,3.475-2.999,6.736-2.312c10.008,2.108,19.979,4.426,30.049,6.172
			c2.818,0.488,5.951-0.608,8.904-1.168c18.867-3.576,37.797-6.66,57.027-7.403c11.447-0.442,22.711,1.176,33.885,3.444
			c13.521,2.743,26.902,6.037,39.834,10.93c2.686,1.017,5.309,2.248,7.854,3.582c5.369,2.814,5.717,8.467,0.404,11.342
			c-7.451,4.029-15.031,7.915-22.855,11.139c-13.119,5.406-26.686,9.467-40.805,11.472c-9.264,1.316-18.471,0.844-27.682-0.438
			c-18.498-2.576-36.605-6.926-54.59-11.86c-1.115-0.306-2.422-0.206-3.584,0.007c-11.104,2.045-22.189,4.174-33.291,6.229
			c-2.975,0.551-5.141-0.529-6.258-2.896c-1.096-2.318-0.588-4.481,1.629-6.521C39.799,100.623,44.576,96.286,49.512,91.778z
			 M209.547,93.403c-0.039-0.236-0.078-0.473-0.117-0.709c-0.412-0.171-0.818-0.362-1.24-0.51
			c-12.76-4.439-25.807-7.786-39.092-10.224c-10.025-1.84-20.096-3.216-30.322-2.585c-18.58,1.146-36.943,3.98-55.184,7.563
			c-5.607,1.101-11.008,1.483-16.541-0.249c-2.861-0.895-5.893-1.242-9.129-1.895c1.85,2.828,5.631,4.646,4.367,8.117
			c-0.992,2.727-3.479,4.908-5.32,7.355c3.549-0.671,7.223-1.486,10.936-2.033c3.111-0.459,6.482-1.469,9.371-0.75
			c17.943,4.466,35.871,8.965,54.178,11.723c7.668,1.156,15.375,1.943,23.137,0.969c12.088-1.521,23.785-4.66,35.182-8.888
			C196.424,98.821,202.959,96.042,209.547,93.403z"/>
		<path fill-rule="evenodd" clip-rule="evenodd" d="M209.609,147.507c4.912,4.491,9.74,8.876,14.531,13.302
			c2.15,1.986,2.617,4.046,1.582,6.331c-1.059,2.336-3.439,3.615-5.965,3.141c-11.244-2.118-22.48-4.281-33.734-6.345
			c-1.283-0.235-2.732-0.198-3.986,0.143c-16.754,4.546-33.654,8.376-50.775,11.321c-18.703,3.219-36.865,1.128-54.762-4.616
			c-13.227-4.245-26.268-8.935-38.264-16.103c-0.65-0.389-1.313-0.766-1.943-1.186c-4.695-3.131-4.523-8.419,0.42-11.106
			c7.984-4.343,16.658-6.832,25.352-9.243c12.865-3.57,25.871-6.498,39.143-8.097c10.076-1.215,20.172-0.942,30.244,0.04
			c17.07,1.667,33.969,4.457,50.766,7.904c0.926,0.19,1.971,0.053,2.916-0.143c10.088-2.096,20.166-4.236,30.25-6.355
			c2.521-0.529,4.805,0.475,6.02,2.604c1.197,2.102,0.973,4.26-0.832,6.288C216.988,139.411,213.348,143.38,209.609,147.507z
			 M49.697,147.937c0,0.305,0,0.61-0.002,0.914c0.791,0.383,1.561,0.826,2.379,1.141c8.977,3.447,17.842,7.242,26.971,10.225
			c15.877,5.188,32.129,8.086,48.842,4.686c15.883-3.231,31.75-6.574,47.529-10.275c5.488-1.287,10.701-2.222,16.258-0.635
			c3.42,0.979,7.018,1.344,10.4,1.961c-1.85-2.459-4.234-4.592-5.262-7.252c-1.293-3.346,2.365-5.172,4.084-7.89
			c-0.863,0.046-1.447,0.002-1.996,0.116c-4.453,0.924-8.893,1.908-13.35,2.801c-1.021,0.203-2.129,0.305-3.148,0.149
			c-17.082-2.624-34.125-5.535-51.25-7.844c-7.035-0.948-14.248-0.983-21.363-0.79c-11.109,0.299-21.996,2.531-32.75,5.186
			C67.865,142.692,58.809,145.415,49.697,147.937z"/>
		<path fill-rule="evenodd" clip-rule="evenodd" fill="#FFFFFF" d="M209.547,93.403c-6.588,2.639-13.123,5.418-19.775,7.886
			c-11.396,4.228-23.094,7.366-35.182,8.888c-7.762,0.975-15.469,0.188-23.137-0.969c-18.307-2.758-36.234-7.257-54.178-11.723
			c-2.889-0.719-6.26,0.291-9.371,0.75c-3.713,0.547-7.387,1.362-10.936,2.033c1.842-2.447,4.328-4.629,5.32-7.355
			c1.264-3.471-2.518-5.289-4.367-8.117c3.236,0.652,6.268,1,9.129,1.895c5.533,1.732,10.934,1.35,16.541,0.249
			c18.24-3.583,36.604-6.417,55.184-7.563c10.227-0.631,20.297,0.745,30.322,2.585c13.285,2.438,26.332,5.784,39.092,10.224
			c0.422,0.147,0.828,0.339,1.24,0.51C209.469,92.931,209.508,93.167,209.547,93.403z M183.74,89.315
			c-2.852-0.041-5.137,2.094-5.209,4.863c-0.068,2.67,2.279,5.068,5.01,5.12c2.734,0.051,5.143-2.222,5.211-4.923
			C188.822,91.661,186.539,89.356,183.74,89.315z"/>
		<path fill-rule="evenodd" clip-rule="evenodd" fill="#FFFFFF" d="M49.697,147.937c9.111-2.521,18.168-5.244,27.342-7.508
			c10.754-2.654,21.641-4.887,32.75-5.186c7.115-0.193,14.328-0.158,21.363,0.79c17.125,2.309,34.168,5.22,51.25,7.844
			c1.02,0.155,2.127,0.054,3.148-0.149c4.457-0.893,8.896-1.877,13.35-2.801c0.549-0.114,1.133-0.07,1.996-0.116
			c-1.719,2.718-5.377,4.544-4.084,7.89c1.027,2.66,3.412,4.793,5.262,7.252c-3.383-0.617-6.98-0.982-10.4-1.961
			c-5.557-1.587-10.77-0.652-16.258,0.635c-15.779,3.701-31.646,7.044-47.529,10.275c-16.713,3.4-32.965,0.502-48.842-4.686
			c-9.129-2.982-17.994-6.777-26.971-10.225c-0.818-0.314-1.588-0.758-2.379-1.141C49.697,148.547,49.697,148.241,49.697,147.937z
			 M75.461,145.698c-2.773,0.025-5.117,2.353-5.08,5.045c0.037,2.66,2.504,5.054,5.174,5.018c2.695-0.035,5.107-2.465,5.078-5.111
			C80.6,147.927,78.246,145.673,75.461,145.698z"/>
		<path fill-rule="evenodd" clip-rule="evenodd" d="M183.74,89.315c2.799,0.041,5.082,2.346,5.012,5.061
			c-0.068,2.701-2.477,4.974-5.211,4.923c-2.73-0.052-5.078-2.45-5.01-5.12C178.604,91.409,180.889,89.274,183.74,89.315z"/>
		<path fill-rule="evenodd" clip-rule="evenodd" d="M75.461,145.698c2.785-0.025,5.139,2.229,5.172,4.951
			c0.029,2.646-2.383,5.076-5.078,5.111c-2.67,0.036-5.137-2.357-5.174-5.018C70.344,148.051,72.688,145.724,75.461,145.698z"/>
	</g>
</g>
</svg>
