<?xml version="1.0" encoding="utf-8"?>
<!-- Generator: Adobe Illustrator 16.0.0, SVG Export Plug-In . SVG Version: 6.00 Build 0)  -->
<!DOCTYPE svg PUBLIC "-//W3C//DTD SVG 1.1//EN" "http://www.w3.org/Graphics/SVG/1.1/DTD/svg11.dtd">
<svg version="1.1" id="Camada_1" xmlns="http://www.w3.org/2000/svg" xmlns:xlink="http://www.w3.org/1999/xlink" x="0px" y="0px"
	 width="259.107px" height="238.461px" viewBox="0 0 259.107 238.461" enable-background="new 0 0 259.107 238.461"
	 xml:space="preserve">
<ellipse fill="#FFFFFF" cx="128.344" cy="132.308" rx="1.538" ry="53.846"/>
<path fill="#ADD0CE" d="M227.873,167.937c-19.452,67.345-71.936,50.482-137.24,31.62C25.33,180.696,8.017,186.206,27.467,118.86
	c19.452-67.345,106.06-92.939,171.363-74.077C264.134,63.645,247.324,100.592,227.873,167.937z"/>
<g>
	<path fill-rule="evenodd" clip-rule="evenodd" d="M47.054,174.466c0-2.88,0.035-5.559-0.022-8.234
		c-0.015-0.717-0.241-1.454-0.492-2.139c-1.558-4.263-3.178-8.503-4.708-12.776c-0.362-1.014-0.543-2.112-0.664-3.188
		c-0.328-2.943-0.58-5.894-0.869-8.926c12.354,0.853,25.143,1.735,38.173,2.635c-0.157-2.239-0.297-4.233-0.456-6.502
		c-14.016,0.372-27.99,0.743-42.229,1.121c1.072-3.815,2.062-7.157,2.949-10.525c2.308-8.765,3.791-17.664,3.821-26.747
		c0.05-15.22-4.776-28.704-14.651-40.336c-0.236-0.279-0.456-0.574-0.803-1.012c1.095-1.203,2.188-2.404,3.363-3.696
		C46.38,65.818,61.344,78.428,75.521,92.77c-0.113-1.573-0.199-2.639-0.266-3.706c-0.395-6.446-0.797-12.892-1.166-19.339
		c-0.104-1.819,1.01-3.09,2.625-3.125c1.434-0.031,2.326,1.006,2.444,2.863c0.587,9.268,1.157,18.538,1.78,27.803
		c0.046,0.678,0.297,1.476,0.732,1.972c5.274,6.011,10.604,11.974,15.908,17.96c0.193,0.219,0.264,0.547,0.391,0.825
		c0.204-0.069,0.408-0.139,0.612-0.208c1.35-4.508,2.81-8.986,4.028-13.53c2.65-9.899,4.118-19.967,3.909-30.243
		c-0.405-20.031-7.153-37.46-21.261-51.876c-0.338-0.344-0.648-0.713-1.069-1.181c1.089-1.231,2.138-2.417,3.304-3.736
		c10.352,8.256,20.02,17.162,29.267,26.512c9.208,9.31,18.198,18.836,27.507,28.499c0.223-2.454,0.449-4.784,0.645-7.116
		c0.752-9.006,1.482-18.014,2.252-27.018c0.133-1.558,1.271-2.485,2.727-2.391c1.42,0.091,2.432,1.166,2.332,2.765
		c-0.223,3.497-0.557,6.986-0.853,10.478c-0.684,8.086-1.163,16.197-2.155,24.246c-0.431,3.504,0.767,5.742,2.945,8.262
		c16.09,18.62,32.053,37.352,47.963,56.125c1.616,1.907,3.041,2.667,5.576,2.018c3.254-0.833,6.645-1.13,10.08-1.675
		c0-2.03-0.054-4.043,0.031-6.049c0.027-0.66,0.219-1.552,0.673-1.914c2.028-1.615,2.78-3.713,2.619-6.18
		c-0.077-1.177,0.317-1.741,1.442-2.122c1.902-0.644,3.74-1.477,5.851-2.328c0.675,18.759-1.697,36.951-5.433,55.105
		C163.019,174.466,105.147,174.466,47.054,174.466z M102.896,38.259c0.088,0.213,0.16,0.433,0.266,0.638
		c8.115,15.829,9.895,32.646,7.646,50.039c-1.655,12.793-5.339,25.062-10.051,37.039c-0.345,0.879-0.674,1.764-1.09,2.857
		c31.137,2.679,61.982,5.333,93.16,8.015c-13.21-15.713-26.152-31.244-39.246-46.646C137.902,71.758,121.249,54.245,102.896,38.259z
		 M219.391,142.735c-0.933,0.066-1.481,0.055-2.009,0.15c-17.816,3.222-35.593,6.678-53.459,9.596
		c-10.112,1.652-20.346,2.734-30.568,3.501c-9.988,0.749-20.031,0.83-30.053,1.083c-5.018,0.126-9.748-1.876-11.287-7.777
		c-0.29-1.113-0.842-1.622-2.027-1.653c-2.027-0.053-4.051-0.248-6.076-0.388c-10.367-0.713-20.734-1.432-31.102-2.14
		c-2.248-0.153-4.498-0.268-6.951-0.412c0.51,2.655-0.081,5.282,1.734,7.521c0.787,0.97,1.262,2.262,1.637,3.481
		c1.362,4.433,3.865,8.651,2.484,13.675c55.043,0,109.849,0,165.074,0C217.648,160.582,218.505,151.806,219.391,142.735z
		 M39.892,68.294c-0.162,0.532-0.209,0.602-0.191,0.639c0.27,0.549,0.536,1.1,0.824,1.639c3.885,7.25,6.023,14.971,6.563,23.188
		c0.629,9.609-0.779,18.987-2.861,28.306c-0.661,2.956-1.417,5.891-2.168,8.998c1.232,0,2.208,0.005,3.184,0
		c15.119-0.093,30.247-1.188,45.348,0.361c1.861,0.191,2.813-0.328,3.313-2.112c0.36-1.29,0.949-2.528,1.541-3.738
		c0.596-1.219,0.52-2.101-0.444-3.23c-11.954-14.002-24.55-27.387-38.239-39.706C51.331,77.751,45.634,73.161,39.892,68.294z
		 M117.812,141.907c-5.609-1.688-11.148-3.619-16.822-4.986c-5.776-1.392-11.725-1.668-17.844-1.492
		c0.172,2.342,0.328,4.469,0.494,6.731c2.772,0.221,5.455,0.462,8.141,0.642c3.189,0.213,3.19,0.19,4.031,3.35
		c1.053,3.958,3.322,5.994,6.953,5.865c9.152-0.326,18.301-0.755,27.451-1.173c2.506-0.114,5.006-0.334,7.58-0.511
		c0.356-4.424,0.699-8.672,1.049-13.001c-8.861-0.766-17.492-1.512-26.507-2.291C114.357,137.574,116.105,139.767,117.812,141.907z
		 M143.923,137.762c-0.336,4.178-0.648,8.061-0.981,12.184c16.585-1.218,32.636-4.014,48.558-8.092
		C175.72,140.497,159.941,139.14,143.923,137.762z"/>
	<path fill-rule="evenodd" clip-rule="evenodd" fill="#FFFFFF" d="M102.896,38.259c18.353,15.986,35.006,33.499,50.686,51.942
		c13.094,15.402,26.036,30.933,39.246,46.646c-31.178-2.683-62.023-5.336-93.16-8.015c0.416-1.093,0.745-1.978,1.09-2.857
		c4.712-11.978,8.396-24.246,10.051-37.039c2.248-17.393,0.469-34.21-7.646-50.039C103.056,38.692,102.984,38.472,102.896,38.259z"
		/>
	<path fill-rule="evenodd" clip-rule="evenodd" fill="#FFFFFF" d="M219.391,142.735c-0.886,9.071-1.743,17.847-2.603,26.639
		c-55.226,0-110.031,0-165.074,0c1.381-5.024-1.122-9.242-2.484-13.675c-0.375-1.219-0.85-2.512-1.637-3.481
		c-1.815-2.239-1.225-4.866-1.734-7.521c2.453,0.144,4.703,0.259,6.951,0.412c10.367,0.708,20.734,1.427,31.102,2.14
		c2.025,0.14,4.049,0.335,6.076,0.388c1.186,0.031,1.737,0.54,2.027,1.653c1.539,5.901,6.27,7.903,11.287,7.777
		c10.021-0.253,20.064-0.335,30.053-1.083c10.223-0.767,20.456-1.849,30.568-3.501c17.866-2.918,35.643-6.375,53.459-9.596
		C217.91,142.79,218.458,142.801,219.391,142.735z"/>
	<path fill-rule="evenodd" clip-rule="evenodd" fill="#FFFFFF" d="M39.892,68.294c5.742,4.867,11.438,9.457,16.867,14.344
		c13.689,12.319,26.285,25.704,38.239,39.706c0.964,1.129,1.04,2.011,0.444,3.23c-0.592,1.21-1.181,2.448-1.541,3.738
		c-0.5,1.785-1.451,2.304-3.313,2.112c-15.101-1.549-30.229-0.454-45.348-0.361c-0.976,0.006-1.951,0-3.184,0
		c0.751-3.106,1.507-6.042,2.168-8.998c2.082-9.319,3.49-18.697,2.861-28.306c-0.539-8.217-2.678-15.938-6.563-23.188
		c-0.288-0.539-0.555-1.09-0.824-1.639C39.683,68.896,39.73,68.826,39.892,68.294z"/>
</g>
</svg>
