<?xml version="1.0" encoding="utf-8"?>
<!-- Generator: Adobe Illustrator 16.0.0, SVG Export Plug-In . SVG Version: 6.00 Build 0)  -->
<!DOCTYPE svg PUBLIC "-//W3C//DTD SVG 1.1//EN" "http://www.w3.org/Graphics/SVG/1.1/DTD/svg11.dtd">
<svg version="1.1" id="Camada_1" xmlns="http://www.w3.org/2000/svg" xmlns:xlink="http://www.w3.org/1999/xlink" x="0px" y="0px"
	 width="259.108px" height="238.461px" viewBox="0 0 259.108 238.461" enable-background="new 0 0 259.108 238.461"
	 xml:space="preserve">
<g>
	<path fill="#ADD0CE" d="M218.805,162.006c-45.816,48.382-71.936,50.482-137.24,31.621C16.262,174.766-1.051,180.276,18.4,112.93
		c19.452-67.345,106.06-92.939,171.363-74.077C255.067,57.714,267.004,111.109,218.805,162.006z"/>
	<g>
		<path fill-rule="evenodd" clip-rule="evenodd" d="M126.627,67.326c16.379-2.43,28.393,8.262,29.425,22.506
			c3.2-2.767,6.333-5.662,9.66-8.313c8.691-6.925,18.175-12.408,29.051-15.147c15.702-3.953,29.944-0.934,42.668,9.114
			c0.515,0.405,1.029,0.83,1.462,1.318c1.576,1.784,1.587,3.932,0.074,5.47c-1.692,1.716-3.92,1.889-5.748,0.396
			c-5.739-4.68-12.117-7.996-19.461-9.375c-8.144-1.531-15.912-0.167-23.463,2.879c-10.806,4.358-19.879,11.256-28.092,19.38
			c-0.111,0.109-0.171,0.272-0.375,0.606c7.349,0.653,13.479,3.542,17.938,9.422c4.418,5.828,5.68,12.445,4.553,19.675
			c14.656-1.369,25.238,3.912,29.012,18.853c2.512,9.955-1.792,19.779-9.955,25.306c-8.014,5.427-20.477,6.32-30.232-1.881
			c-5.454,17.301-27.228,21.772-39.988,10.623c-2.573,8.43-8.294,13.724-16.523,16.198c-8.309,2.501-15.901,0.682-22.767-4.605
			c-6.094,12.973-16.143,18.29-30.163,14.877c-9.208-2.24-15.934-10.561-17.093-19.656c-1.267-9.951,3.142-21.878,16.08-26.765
			c-5.723-6.783-7.88-14.473-5.479-23.086c2.396-8.589,8.176-14.021,16.631-16.714c-11.109-13.06-6.484-33.907,10.692-39.703
			c-4.545-5.594-7.157-11.842-6.249-19.135c0.69-5.55,3.175-10.34,6.927-14.438c6.835-7.464,18.959-9.521,28.494-4.913
			C122.504,44.468,128.909,54.41,126.627,67.326z M108.512,101.89c0.289-8.455-7.481-16.434-16.438-16.401
			c-9.816,0.034-16.399,8.775-16.417,16.544c-0.02,8.867,7.387,16.094,16.484,16.084C101.167,118.107,108.52,110.82,108.512,101.89z
			 M109.866,154.285c-9.687-0.346-16.71,8.613-16.464,16.368c0.298,9.415,6.677,15.918,16.378,16.136
			c9.064,0.204,16.416-7.184,16.502-16.073C126.37,161.74,118.235,153.926,109.866,154.285z M102.859,46.017
			C92.43,45.884,86.461,55.534,86.354,62.28c-0.147,9.367,7.734,16.289,16.398,16.333c8.996,0.044,16.393-7.25,16.511-16.133
			C119.384,53.66,111.534,45.897,102.859,46.017z M121.018,114.399c-9.637-0.489-16.563,8.842-16.532,16.177
			c0.037,9.137,6.981,16.177,16.237,16.278c9.184,0.102,16.607-7.135,16.641-16.147
			C137.399,121.635,129.272,114.047,121.018,114.399z M131.665,107.35c9.143-0.023,16.223-7.186,16.391-16.217
			c0.156-8.419-7.87-16.338-16.424-16.326c-9.519,0.013-16.475,8.61-16.478,16.51C115.15,100.306,122.424,107.375,131.665,107.35z
			 M97.377,141.784c0.404-8.279-7.418-16.523-16.473-16.364c-8.953,0.157-16.326,7.617-16.283,16.622
			c0.041,9.059,7.217,15.965,16.55,15.932C90.191,157.938,97.397,150.742,97.377,141.784z M144.003,120.16
			c0.005,8.913,7.355,16.085,16.456,16.06c9.016-0.021,16.363-7.375,16.404-16.242c0.041-8.78-7.785-16.47-16.513-16.374
			C151.542,103.7,143.998,111.275,144.003,120.16z M206.003,149.299c0.413-9.738-9.021-16.364-16.252-16.473
			c-10.03-0.149-16.642,9.285-16.55,16.39c0.115,8.977,7.193,16.149,16.342,16.226C198.569,165.516,205.973,158.255,206.003,149.299
			z M70.664,197.471c9.08,0.012,16.65-7.12,16.398-15.938c-0.277-9.664-6.975-16.301-16.424-16.546
			c-10.023-0.262-16.421,8.979-16.37,16.517C54.332,190.429,61.552,197.461,70.664,197.471z M165.797,159.582
			c-0.059-9.54-6.937-15.955-16.168-16.43c-8.502-0.438-16.129,7.922-16.084,16.373c0.048,9.093,7.028,16.184,16.139,16.195
			C158.848,175.73,165.797,168.771,165.797,159.582z"/>
		<path fill-rule="evenodd" clip-rule="evenodd" fill="#FFFFFF" d="M108.512,101.89c0.008,8.93-7.345,16.217-16.371,16.227
			c-9.097,0.01-16.504-7.217-16.484-16.084c0.019-7.769,6.602-16.51,16.417-16.544C101.031,85.457,108.801,93.435,108.512,101.89z"
			/>
		<path fill-rule="evenodd" clip-rule="evenodd" fill="#FFFFFF" d="M109.866,154.285c8.369-0.358,16.504,7.455,16.416,16.431
			c-0.086,8.89-7.438,16.277-16.502,16.073c-9.701-0.218-16.08-6.721-16.378-16.136C93.155,162.898,100.179,153.939,109.866,154.285
			z"/>
		<path fill-rule="evenodd" clip-rule="evenodd" fill="#FFFFFF" d="M102.859,46.017c8.675-0.12,16.525,7.643,16.404,16.463
			c-0.118,8.883-7.515,16.177-16.511,16.133c-8.664-0.044-16.545-6.966-16.398-16.333C86.461,55.534,92.43,45.884,102.859,46.017z"
			/>
		<path fill-rule="evenodd" clip-rule="evenodd" fill="#FFFFFF" d="M121.018,114.399c8.254-0.352,16.381,7.236,16.346,16.308
			c-0.033,9.013-7.457,16.249-16.641,16.147c-9.256-0.102-16.2-7.142-16.237-16.278C104.455,123.241,111.381,113.91,121.018,114.399
			z"/>
		<path fill-rule="evenodd" clip-rule="evenodd" fill="#FFFFFF" d="M131.665,107.35c-9.24,0.024-16.515-7.044-16.511-16.033
			c0.003-7.899,6.959-16.497,16.478-16.51c8.554-0.012,16.58,7.907,16.424,16.326C147.887,100.165,140.807,107.327,131.665,107.35z"
			/>
		<path fill-rule="evenodd" clip-rule="evenodd" fill="#FFFFFF" d="M97.377,141.784c0.02,8.958-7.186,16.154-16.206,16.189
			c-9.333,0.033-16.509-6.873-16.55-15.932c-0.043-9.005,7.331-16.465,16.283-16.622C89.959,125.26,97.781,133.504,97.377,141.784z"
			/>
		<path fill-rule="evenodd" clip-rule="evenodd" fill="#FFFFFF" d="M144.003,120.16c-0.006-8.885,7.538-16.46,16.348-16.557
			c8.728-0.096,16.554,7.594,16.513,16.374c-0.041,8.867-7.389,16.221-16.404,16.242
			C151.359,136.245,144.008,129.073,144.003,120.16z"/>
		<path fill-rule="evenodd" clip-rule="evenodd" fill="#FFFFFF" d="M206.003,149.299c-0.03,8.956-7.435,16.217-16.46,16.143
			c-9.148-0.076-16.227-7.249-16.342-16.226c-0.092-7.104,6.52-16.539,16.55-16.39C196.982,132.935,206.417,139.561,206.003,149.299
			z"/>
		<path fill-rule="evenodd" clip-rule="evenodd" fill="#FFFFFF" d="M70.664,197.471c-9.112-0.01-16.333-7.042-16.396-15.968
			c-0.052-7.538,6.347-16.778,16.37-16.517c9.449,0.245,16.147,6.882,16.424,16.546C87.314,190.351,79.744,197.483,70.664,197.471z"
			/>
		<path fill-rule="evenodd" clip-rule="evenodd" fill="#FFFFFF" d="M165.797,159.582c0,9.189-6.949,16.148-16.113,16.139
			c-9.11-0.012-16.091-7.103-16.139-16.195c-0.045-8.451,7.582-16.811,16.084-16.373
			C158.861,143.626,165.739,150.042,165.797,159.582z"/>
	</g>
</g>
</svg>
